<?xml version="1.0" encoding="UTF-8" standalone="no"?><!DOCTYPE svg PUBLIC "-//W3C//DTD SVG 1.1//EN" "http://www.w3.org/Graphics/SVG/1.1/DTD/svg11.dtd"><svg width="100%" height="100%" viewBox="0 0 234 234" version="1.1" xmlns="http://www.w3.org/2000/svg" xmlns:xlink="http://www.w3.org/1999/xlink" xml:space="preserve" xmlns:serif="http://www.serif.com/" style="fill-rule:evenodd;clip-rule:evenodd;stroke-linejoin:round;stroke-miterlimit:2;"><path d="M228.799,4.881c-6.509,-6.508 -17.062,-6.508 -23.57,0l-88.389,88.389l-88.388,-88.388c-6.509,-6.509 -17.061,-6.509 -23.57,-0c-6.509,6.509 -6.509,17.061 -0,23.57l88.388,88.388l-88.388,88.388c-6.509,6.509 -6.509,17.062 -0,23.571c6.509,6.508 17.061,6.508 23.57,-0l88.388,-88.389l88.389,88.389c6.508,6.508 17.061,6.509 23.57,-0c6.509,-6.509 6.508,-17.062 -0,-23.57l-88.389,-88.389l88.389,-88.388c6.509,-6.509 6.509,-17.061 0,-23.571Z" style="fill-rule:nonzero;"/></svg>