<?xml version="1.0" encoding="utf-8"?>
<!-- Generator: Adobe Illustrator 23.0.6, SVG Export Plug-In . SVG Version: 6.00 Build 0)  -->
<svg version="1.1" id="Calque_1" xmlns="http://www.w3.org/2000/svg" xmlns:xlink="http://www.w3.org/1999/xlink" x="0px" y="0px"
	 viewBox="0 0 960 619" style="enable-background:new 0 0 960 619;" xml:space="preserve">
<style type="text/css">
	.st0{fill:url(#SVGID_1_);}
	.st1{fill:url(#SVGID_2_);}
</style>
<path d="M206.9,384.5c-0.7,1.2-0.9,1.6-1.2,2c-8.9,11.4-20.8,16.9-35.2,17.2c-18,0.3-33.8-5-46-18.6c-8.7-9.6-13.1-21.2-14.5-33.9
	c-1.7-15.5,0.1-30.5,8.2-44.2c9.1-15.4,23-23.8,40.5-26.4c10.2-1.5,20.2-1.1,29.9,2.9c6.1,2.5,11.2,6.4,16.1,12.1c0-2,0-3,0-4.1
	c0-23,0-46,0-68.9c0-4.8,0.2-5,5.1-5c6.7,0,13.3,0.1,20,0c2.7,0,3.8,1.1,3.7,3.7c0,0.9,0,1.8,0,2.8c0,56.9,0,113.9,0,170.8
	c0,1.2,0.3,2.6-0.2,3.6c-0.5,1.1-1.7,2.5-2.7,2.5c-5.4,0.2-10.9,0.1-16.3,0.1c-2.3,0-3.2-1.5-3.7-3.4
	C209.4,393.6,208.3,389.6,206.9,384.5z M138.1,341.3c-0.2,19.8,13.2,33.7,32.4,33.8c20.2,0.1,33.8-13.2,34.1-33.2
	c0.2-19.8-13.3-33.5-33.2-33.7C151.6,307.9,138.2,321.2,138.1,341.3z"/>
<path d="M440.9,295.8c1.7-2,2.7-3.2,3.8-4.3c8.8-9.2,19.9-12.5,32.3-12.4c24.3,0.1,39.5,16.2,43.4,38.2c0.9,5.2,1.3,10.6,1.4,15.9
	c0.1,21.1,0.1,42.3,0.1,63.4c0,4.3-0.3,4.6-4.5,4.6c-6.6,0-13.1,0-19.7,0c-4,0-4.5-0.5-4.6-4.6c0-18.8,0.1-37.5-0.1-56.3
	c0-4.5-0.3-9.1-1.2-13.4c-2-9.2-7.2-15.9-16.9-17.9c-10.2-2.1-19,0.7-25.6,8.9c-6.3,7.8-8.3,17.1-8.3,26.8c-0.1,17.2,0,34.5,0,51.7
	c0,4.5-0.4,4.9-5,4.9c-6.4,0-12.7,0-19.1,0c-4.5,0-4.9-0.3-4.9-4.9c0-51.6,0-103.2,0-154.8c0-6.6,0.1-13.1,0-19.7
	c-0.1-3,1.2-4,4.1-4c6.9,0.1,13.7,0,20.6,0c3.6,0,4.2,0.7,4.2,4.4c0,23.1,0,46.2,0,69.2C440.9,292.5,440.9,293.6,440.9,295.8z"/>
<path d="M353.7,297.6c1.3-4.5,2.5-8.4,3.5-12.4c0.6-2.6,2-3.7,4.8-3.6c4.8,0.2,9.6,0,14.5,0c5.5,0,5.6,0,5.6,5.4
	c0,35.2,0,70.4,0,105.6c0,1.6,0,3.3,0,4.9c0.1,2.5-1.1,3.5-3.6,3.5c-5.7,0-11.5-0.1-17.2,0c-2.4,0-3.6-1-4.1-3.2
	c-1-4-2.1-7.9-3.3-12.4c-0.9,1-1.6,1.7-2.2,2.4c-8.3,9.9-19,15-31.8,15.8c-15.9,0.9-30.6-2.6-43-13.1C264.2,380,258.1,366,256.4,350
	c-1.8-17.1,1-33.2,11.2-47.4c9.2-12.9,22.1-19.8,37.6-22.1c8.3-1.2,16.5-1.2,24.7,1c8.7,2.3,15.9,7,21.7,13.8
	C352.1,295.9,352.7,296.5,353.7,297.6z M351.3,341.5c-0.1-19.7-14.3-33.4-34.2-33.2c-19.4,0.2-32.6,13.7-32.5,33.3
	c0.1,19.9,13.7,33.6,33.1,33.4C337.6,374.9,351.4,361.1,351.3,341.5z"/>
<path d="M758,353.1c3.4,10.9,9.9,18.1,20.1,21.3c14.3,4.4,28,2.8,40.2-6.6c2.2-1.7,4-2,6.1,0.3c4.2,4.6,8.7,9,13,13.5
	c2.3,2.4,2.3,3.6-0.1,5.9c-8.2,8-18.1,12.5-29.3,14.4c-15.6,2.7-31.1,2.5-45.9-3.9c-18.8-8.2-29.7-22.8-33.4-42.7
	c-3.1-16.7-1.3-33,7.5-47.9c9.4-16,23.9-24.3,41.9-27c10.8-1.6,21.5-1.1,32,2c19,5.6,30.6,18.7,36.3,37.3c2.9,9.4,3.9,19.1,4.1,28.8
	c0.1,3.9-0.5,4.4-4.4,4.4c-27.9,0-55.8,0-83.7,0C761,353.1,759.8,353.1,758,353.1z M819.6,331.3c-0.2-13.3-14.4-24.3-30.9-24.4
	c-17.9-0.1-29.4,11.9-30.7,24.4C778.5,331.3,799.1,331.3,819.6,331.3z"/>
<path d="M657.4,366.4c5.4-14.5,10.5-28.5,15.6-42.4c4.7-12.8,9.4-25.6,14-38.4c0.9-2.6,2.3-3.8,5.1-3.8c7.6,0.1,15.2,0,22.8,0.1
	c4,0,4.6,1,3.2,4.7c-14.5,37-29.1,74-43.5,111c-1,2.4-2.4,3.5-5.1,3.5c-8.1-0.1-16.2-0.1-24.3,0c-2.7,0-4.2-1.1-5.1-3.5
	c-14.5-37.1-29.1-74.2-43.7-111.3c-1.3-3.3-0.6-4.3,3-4.4c7.8-0.1,15.6,0,23.4-0.1c2.8,0,3.9,1.5,4.8,3.8
	c9.4,25.8,19,51.5,28.5,77.3C656.3,363.9,656.8,364.9,657.4,366.4z"/>
<path d="M580.3,341.4c0,18.3,0,36.5,0,54.8c0,4.6-0.4,4.9-4.9,4.9c-6.7,0-13.3-0.1-20,0c-2.9,0-4.1-1-4.1-4c0-37.1,0-74.3,0-111.4
	c0-2.8,1.2-3.9,3.9-3.9c7.1,0.1,14.2,0.1,21.2,0c2.9,0,3.9,1.2,3.9,4.1C580.3,304.4,580.3,322.9,580.3,341.4z"/>
<path d="M565.9,250.9c-10,0-16.8-6.8-16.7-16.8c0.1-9.6,6.9-16.3,16.7-16.3c9.8,0,16.4,6.6,16.4,16.4
	C582.3,244.3,575.8,250.9,565.9,250.9z"/>
<linearGradient id="SVGID_1_" gradientUnits="userSpaceOnUse" x1="411.6151" y1="147.0372" x2="580.3964" y2="147.0372">
	<stop  offset="0.237" style="stop-color:#EC6A45"/>
	<stop  offset="1" style="stop-color:#E7376B"/>
</linearGradient>
<path class="st0" d="M578.9,148.3l-106.6-38.6c-0.6-0.2-1.3-0.2-1.8,0.1L412.7,142c-0.7,0.4-1.1,1.1-1.1,1.9v32
	c0,0.8,0.4,1.5,1.1,1.9c0.7,0.4,1.5,0.4,2.2,0l56.6-31.8l105.9,38.3c0.2,0.1,0.5,0.1,0.8,0.1c0.4,0,0.9-0.1,1.3-0.4
	c0.6-0.4,0.9-1.1,0.9-1.8v-32C580.4,149.4,579.8,148.6,578.9,148.3z"/>
<linearGradient id="SVGID_2_" gradientUnits="userSpaceOnUse" x1="411.6151" y1="471.9237" x2="580.3964" y2="471.9237">
	<stop  offset="0.237" style="stop-color:#EC6A45"/>
	<stop  offset="1" style="stop-color:#E7376B"/>
</linearGradient>
<path class="st1" d="M579.3,441c-0.7-0.4-1.5-0.4-2.2,0l-56.6,31.8l-105.9-38.3c-0.7-0.2-1.4-0.1-2,0.3c-0.6,0.4-0.9,1.1-0.9,1.8v32
	c0,0.9,0.6,1.8,1.5,2.1l106.6,38.6c0.2,0.1,0.5,0.1,0.8,0.1c0.4,0,0.7-0.1,1.1-0.3l57.7-32.3c0.7-0.4,1.1-1.1,1.1-1.9v-32
	C580.4,442.2,580,441.4,579.3,441z"/>
</svg>
