<?xml version="1.0" encoding="UTF-8" standalone="no"?> <svg xmlns="http://www.w3.org/2000/svg" xmlns:xlink="http://www.w3.org/1999/xlink" xmlns:serif="http://www.serif.com/" width="100%" height="100%" viewBox="0 0 564 466" version="1.1" xml:space="preserve" style="fill-rule:evenodd;clip-rule:evenodd;stroke-linejoin:round;stroke-miterlimit:2;"><g><path d="M282.083,2.531c7.917,2.083 12.917,12.5 9.167,18.75c-1.667,2.083 -7.083,3.333 -12.5,2.083c-5.833,-0.833 -10.417,0.417 -11.667,4.167c-4.166,10.416 -2.916,12.916 9.584,14.583c10,1.25 13.333,0 16.666,-7.917c8.75,-18.75 2.917,-35 -11.666,-34.166c-5.417,0.416 -5.417,0.833 0.416,2.5Z" style="fill-rule:nonzero;"></path><path d="M334.583,11.697c-10.833,3.75 -20.416,7.917 -22.083,9.167c-1.25,1.25 0.417,19.167 4.167,39.167c3.333,20 5,37.916 3.75,40c-1.25,2.083 3.333,10.416 10,17.916l12.5,14.167l18.75,-27.5c10.416,-15.417 20.416,-31.25 22.5,-35.417c6.666,-12.916 0.833,-30.833 -15,-47.916l-15,-16.667l-19.584,7.083Zm15,21.25c12.917,14.167 15,19.584 15,36.667c-0.416,10.833 -2.916,24.167 -5.833,29.583l-5.417,9.584l-8.333,-10.417c-5,-6.667 -9.167,-20.417 -10.833,-36.25c-1.667,-13.75 -4.167,-30 -5.417,-35.417c-3.75,-15 3.333,-12.916 20.833,6.25Z" style="fill-rule:nonzero;"></path><path d="M407.917,20.864c-7.917,8.75 -7.917,8.75 0.416,7.5c13.334,-2.5 10.834,30.833 -4.583,61.667c-7.5,15.833 -11.667,29.583 -10.833,37.916l1.25,13.75l12.5,-13.333c6.666,-7.083 12.083,-15 12.083,-17.917c0,-4.166 20.417,-55.833 29.167,-73.333c1.666,-3.333 7.083,-6.667 12.083,-7.5c13.75,-2.083 11.25,12.917 -10.833,58.333c-16.25,34.167 -18.334,41.667 -13.75,47.084c5,5.833 6.666,5.416 17.5,-5c6.666,-6.25 10,-12.084 7.5,-13.75c-2.5,-1.667 2.083,-16.25 12.083,-37.917c22.5,-48.333 22.917,-50.417 10.833,-59.167c-9.583,-7.083 -10.833,-7.083 -21.25,-0.416c-10,6.666 -11.25,6.666 -22.5,0.416c-15.416,-9.166 -22.083,-8.75 -31.666,1.667Z" style="fill-rule:nonzero;"></path><path d="M229.167,24.614c-1.667,5 -0.834,11.25 1.25,13.333c2.916,2.917 5,1.25 7.083,-5c1.667,-5 0.833,-11.25 -1.25,-13.333c-2.917,-2.917 -5,-1.25 -7.083,5Z" style="fill-rule:nonzero;"></path><path d="M260.833,57.947c0,9.167 3.75,20.834 10,31.25c9.584,15.417 10,15.834 10.417,5.834c0,-5.834 1.25,-12.084 2.917,-13.334c5,-5.416 17.916,10.834 17.916,22.917c0,11.667 -0.833,12.083 -12.5,9.583c-11.666,-2.5 -12.5,-2.083 -12.5,10c0,8.334 2.084,12.917 5.834,12.917c2.916,0 8.333,2.917 11.25,6.667c5,5.833 6.25,2.5 10.833,-25.834c5.833,-37.5 4.167,-47.5 -9.167,-60l-9.166,-8.75l-2.917,13.334c-2.5,12.916 -2.917,12.916 -10.417,5.833c-4.583,-3.75 -9.166,-11.25 -10,-16.25c-1.25,-5.417 -2.083,-2.917 -2.5,5.833Z" style="fill-rule:nonzero;"></path><path d="M232.5,65.031c0,6.666 0.833,12.5 2.917,13.75c1.666,1.25 9.166,21.666 17.083,45.416c7.917,24.167 16.667,44.584 19.583,45.417c6.25,2.083 3.75,-13.333 -5.416,-34.583c-2.917,-7.084 -8.75,-26.667 -12.917,-43.75c-7.083,-27.917 -11.667,-37.084 -18.333,-37.5c-1.25,-0 -2.5,5 -2.917,11.25Z" style="fill-rule:nonzero;"></path><path d="M126.25,80.864c-4.167,9.167 -5.417,9.583 -13.333,4.167c-11.667,-8.334 -13.75,-7.917 -25.834,5c-7.916,8.75 -13.75,11.25 -24.166,10.416c-11.25,-1.25 -15.834,1.25 -24.584,11.667c-14.166,16.667 -18.75,39.583 -10.833,53.75c4.583,8.333 10.417,11.25 23.75,13.333c9.583,1.25 17.5,1.25 17.5,0c-0.417,-8.75 -10,-15 -23.75,-15c-14.583,0 -15.833,-0.833 -17.083,-13.333c-1.25,-14.167 10.416,-30.417 22.083,-30.417c10.417,0 26.667,21.667 37.917,50.834c12.5,31.25 11.25,43.333 -3.75,38.75c-21.25,-6.667 -28.334,-7.084 -34.167,-2.084c-8.75,7.084 -7.917,10.417 3.333,11.25c5,0.417 15.834,2.084 24.167,3.334c10,2.083 16.25,0.833 19.167,-2.917c11.666,-14.583 7.916,-65.833 -7.5,-96.25c-12.5,-23.75 -1.667,-32.917 16.25,-14.167c10.416,10.834 42.916,82.084 40,86.667c-0.834,1.667 -7.5,1.667 -14.167,-0.417c-9.167,-2.5 -14.167,-2.083 -18.75,2.5c-11.25,11.25 -7.083,16.25 14.583,17.084c18.75,0.416 21.25,-0.417 23.334,-9.584c3.75,-14.166 -1.25,-42.5 -13.334,-80c-5.833,-17.083 -9.583,-33.75 -8.333,-37.083c4.167,-10.417 12.917,-5 23.333,14.583c7.917,15 10,23.334 7.917,35c-3.75,22.917 4.167,40.834 24.167,55c10,6.667 18.75,11.667 19.583,10.417c0.833,-0.833 2.917,-6.667 4.583,-13.333c2.5,-9.584 1.667,-10.834 -3.75,-8.75c-7.916,2.916 -21.666,-7.917 -30,-24.167c-7.083,-13.333 -7.5,-34.167 -1.666,-45.417c3.333,-5.416 3.333,-9.583 -0,-13.333c-2.5,-2.5 -7.917,-10 -12.917,-16.667c-10.833,-14.583 -27.083,-15 -33.75,-0.833Z" style="fill-rule:nonzero;"></path><path d="M202.083,92.947c0,6.667 2.917,11.25 7.917,12.917c5.417,1.667 11.25,11.667 17.5,30.417c10.833,32.916 19.167,50.833 24.167,50.833c3.75,0 0.833,-21.667 -3.75,-25c-3.334,-2.5 -20.834,-55.417 -20.834,-63.75c0,-3.333 -4.583,-7.917 -10.416,-10.417c-14.167,-6.666 -14.584,-6.666 -14.584,5Z" style="fill-rule:nonzero;"></path><path d="M201.25,110.447c-5.833,5.834 -3.333,28.334 5.417,47.5c9.583,21.25 24.166,38.334 29.166,35c6.667,-3.75 3.75,-16.25 -4.583,-21.25c-10.417,-6.666 -20.417,-26.666 -24.167,-47.916c-1.666,-9.167 -4.166,-15 -5.833,-13.334Z" style="fill-rule:nonzero;"></path><path d="M527.083,231.697c-14.166,9.584 -16.666,13.75 -16.666,28.334c-0,15.416 12.5,36.666 27.5,46.25c10.416,7.083 11.25,7.083 18.75,-2.917c10.416,-13.333 10,-15 -4.167,-12.917c-8.75,1.25 -13.75,-0.833 -18.75,-8.333c-6.667,-9.167 -6.667,-10 8.75,-22.917l15.833,-13.333l-10.416,-10.833c-10.417,-10 -10.834,-10 -20.834,-3.334Zm7.5,14.167c4.167,6.667 4.167,10 0.417,14.583c-7.083,8.334 -10.833,7.084 -13.75,-4.583c-4.583,-18.333 4.167,-25 13.333,-10Z" style="fill-rule:nonzero;"></path><path d="M466.667,254.197c-1.667,5 -0.417,11.25 3.333,15.417c9.583,11.25 23.75,41.25 23.75,50.833c0,15.417 -10,7.084 -25,-21.666c-15.833,-30.834 -33.333,-44.167 -33.333,-26.25c-0,5.833 2.5,10.416 5.833,10.416c5.417,0 27.5,43.75 27.5,54.584c0,3.333 5,6.25 12.083,6.666c10,0.834 12.5,-0.833 13.75,-8.333c1.667,-9.167 3.75,-10 17.084,-5c5.833,2.5 7.083,0.833 7.083,-10.417c0,-7.083 -1.667,-12.083 -3.75,-10.416c-5.417,2.916 -15.417,-11.667 -24.167,-36.25c-8.333,-24.167 -20,-33.334 -24.166,-19.584Z" style="fill-rule:nonzero;"></path><path d="M396.25,311.697c-9.583,30.417 -7.083,51.667 8.333,67.5l11.25,12.084l7.917,-12.5c9.583,-15.834 9.167,-16.667 -0.833,-16.667c-4.584,0 -10.834,-5 -14.584,-12.5c-6.666,-12.5 -8.75,-45.833 -2.916,-45.833c11.666,-0 25.833,26.666 25.833,48.333c0,5.417 1.25,10 3.333,10c1.667,0 7.5,11.25 12.917,25c5.417,13.75 11.25,24.167 12.5,22.917c5.417,-5.417 -1.25,-37.917 -14.583,-70.834c-7.917,-19.166 -14.167,-38.333 -14.167,-41.666c0,-3.334 -2.5,-6.25 -5,-6.25c-2.917,-0 -9.167,-1.25 -13.75,-2.5c-7.083,-1.667 -9.583,1.666 -16.25,22.916Z" style="fill-rule:nonzero;"></path><path d="M18.75,305.031c-15.833,7.916 -18.75,10.833 -18.75,21.666c0,10 2.917,13.334 17.917,20.417c9.583,5 17.5,11.25 17.5,14.583c-0,4.584 1.25,4.584 6.25,0.417c11.666,-9.583 7.083,-19.583 -12.917,-28.75c-33.75,-16.25 -17.083,-32.083 22.5,-20.833c34.167,9.583 49.583,30.833 40,55.416c-2.083,5 -3.75,5.417 -10.417,1.25c-6.25,-3.75 -9.166,-3.333 -15,2.5c-6.666,6.667 -6.666,7.084 0,7.084c3.75,-0 7.084,1.666 7.084,4.166c-0,7.917 -12.084,4.167 -30.834,-9.166c-18.333,-12.5 -19.166,-12.917 -27.083,-5.834c-7.917,7.5 -7.917,7.917 15.417,20c20.416,11.25 25,12.084 35.833,8.334c10,-3.75 12.917,-3.75 16.667,1.666c4.166,5.417 5.416,5.417 12.916,-0.416c7.917,-5.834 7.917,-6.667 1.25,-10.417c-7.083,-4.167 -7.083,-5.417 0.834,-20.833c17.083,-33.75 8.75,-51.25 -30.417,-63.75c-27.5,-8.75 -25.833,-8.75 -48.75,2.5Z" style="fill-rule:nonzero;"></path><path d="M347.917,329.614c-2.917,7.5 -5.834,11.25 -7.084,8.333c-2.916,-7.083 -12.5,-6.25 -15.416,1.25c-1.25,3.334 -1.25,11.667 -0,17.917c1.25,6.25 0.416,22.5 -1.667,36.25c-5,29.167 0,39.583 10.833,23.333c5,-7.5 6.667,-17.5 5.417,-38.75c-1.25,-27.083 2.917,-40.833 12.5,-40.833c2.083,0 3.75,12.5 3.75,27.5c0,40 12.917,57.5 24.167,32.917c5.833,-12.917 6.25,-15.834 1.25,-12.5c-6.25,3.75 -7.917,-2.5 -9.584,-34.584c-0.833,-16.25 -2.5,-30 -4.166,-30c-1.25,0 -5.417,-1.25 -8.75,-2.5c-4.167,-1.25 -7.917,2.084 -11.25,11.667Z" style="fill-rule:nonzero;"></path><path d="M131.25,330.864c-2.5,3.333 -3.75,7.917 -2.083,10c1.25,2.5 -1.25,16.25 -5.834,31.25c-9.583,30.417 -7.916,45.833 4.167,42.083c6.25,-2.083 7.917,-0.416 7.917,6.25c-0,14.167 10,7.084 11.25,-7.916c0.833,-7.5 5.833,-25 11.666,-39.584c5.834,-14.166 10.417,-29.583 10.417,-33.75c0,-14.583 -13.75,3.75 -19.167,25.834c-8.75,34.166 -13.75,45 -19.166,39.583c-3.334,-3.333 -2.084,-11.667 4.166,-32.083c10,-29.167 11.25,-42.084 5.417,-45.417c-2.083,-1.25 -5.833,0.417 -8.75,3.75Z" style="fill-rule:nonzero;"></path><path d="M228.333,334.614c-12.916,15 -43.333,110.417 -38.333,120c5.417,10 13.333,5 10.417,-6.25c-3.334,-13.75 29.583,-110 40.416,-117.5c6.25,-4.583 7.084,-6.25 2.5,-6.25c-3.333,0 -10.416,4.583 -15,10Z" style="fill-rule:nonzero;"></path><path d="M290.833,355.864c-2.916,2.917 -9.166,8.333 -13.75,11.667c-5.833,4.166 -11.25,16.666 -16.666,38.75c-7.5,30.416 -7.5,33.333 -1.25,37.916c3.75,2.917 8.333,5.417 10,5.417c3.75,0 25.416,-27.5 32.5,-40.417c5,-9.583 5.833,-35 2.083,-50.416c-2.917,-10.417 -5.833,-11.25 -12.917,-2.917Zm1.25,51.667c-2.5,17.083 -10.833,26.666 -18.333,21.666c-5.417,-3.333 -4.167,-14.166 5.833,-54.583c2.5,-10.417 2.917,-10 8.75,4.167c3.75,8.333 5.417,20.416 3.75,28.75Z" style="fill-rule:nonzero;"></path><path d="M179.167,363.781c-20,20.416 -30.417,91.25 -12.084,84.166c3.75,-1.25 7.084,-2.5 7.917,-2.5c0.833,0 -1.25,-5 -4.167,-11.666c-7.083,-14.167 -3.75,-34.167 5.834,-34.167c12.083,0 16.25,-5.833 19.166,-26.25c3.334,-22.5 -0.833,-25.417 -16.666,-9.583Zm6.666,14.583c-2.5,13.333 -12.916,23.75 -12.916,12.917c-0,-5.834 12.5,-30.417 14.583,-28.334c0.833,0.834 0,7.917 -1.667,15.417Z" style="fill-rule:nonzero;"></path><path d="M242.917,373.364c-22.5,23.75 -35.417,70.833 -24.167,88.75c2.917,5 5,4.583 12.5,-2.083c7.5,-6.667 7.917,-8.334 2.083,-11.25c-11.25,-6.25 -5.833,-50 8.334,-67.917c6.25,-7.917 6.25,-7.917 3.75,2.917c-1.667,7.5 -0.834,11.666 2.083,11.666c6.25,0 9.583,-9.166 7.917,-22.916l-1.25,-11.25l-11.25,12.083Z" style="fill-rule:nonzero;"></path></g></svg> 