<svg width="2rem" height="2rem" viewBox="0 0 234 234" xmlns="http://www.w3.org/2000/svg" fill-rule="evenodd" clip-rule="evenodd" stroke-linejoin="round" stroke-miterlimit="2"><path d="M228.799 4.881c-6.509-6.508-17.062-6.508-23.57 0L116.84 93.27 28.452 4.882c-6.509-6.509-17.061-6.509-23.57 0s-6.509 17.061 0 23.57L93.27 116.84 4.882 205.228c-6.509 6.509-6.509 17.062 0 23.571 6.509 6.508 17.061 6.508 23.57 0l88.388-88.389 88.389 88.389c6.508 6.508 17.061 6.509 23.57 0s6.508-17.062 0-23.57L140.41 116.84l88.389-88.388c6.509-6.509 6.509-17.061 0-23.571z" fill-rule="nonzero"/></svg>