<svg version="1.1" id="Calque_1" xmlns="http://www.w3.org/2000/svg" x="0" y="0" viewBox="0 0 960 619" xml:space="preserve"><path d="M206.9 384.5c-.7 1.2-.9 1.6-1.2 2-8.9 11.4-20.8 16.9-35.2 17.2-18 .3-33.8-5-46-18.6-8.7-9.6-13.1-21.2-14.5-33.9-1.7-15.5.1-30.5 8.2-44.2 9.1-15.4 23-23.8 40.5-26.4 10.2-1.5 20.2-1.1 29.9 2.9 6.1 2.5 11.2 6.4 16.1 12.1v-73c0-4.8.2-5 5.1-5 6.7 0 13.3.1 20 0 2.7 0 3.8 1.1 3.7 3.7v173.6c0 1.2.3 2.6-.2 3.6-.5 1.1-1.7 2.5-2.7 2.5-5.4.2-10.9.1-16.3.1-2.3 0-3.2-1.5-3.7-3.4-1.2-4.1-2.3-8.1-3.7-13.2zm-68.8-43.2c-.2 19.8 13.2 33.7 32.4 33.8 20.2.1 33.8-13.2 34.1-33.2.2-19.8-13.3-33.5-33.2-33.7-19.8-.3-33.2 13-33.3 33.1zm302.8-45.5c1.7-2 2.7-3.2 3.8-4.3 8.8-9.2 19.9-12.5 32.3-12.4 24.3.1 39.5 16.2 43.4 38.2.9 5.2 1.3 10.6 1.4 15.9.1 21.1.1 42.3.1 63.4 0 4.3-.3 4.6-4.5 4.6h-19.7c-4 0-4.5-.5-4.6-4.6 0-18.8.1-37.5-.1-56.3 0-4.5-.3-9.1-1.2-13.4-2-9.2-7.2-15.9-16.9-17.9-10.2-2.1-19 .7-25.6 8.9-6.3 7.8-8.3 17.1-8.3 26.8-.1 17.2 0 34.5 0 51.7 0 4.5-.4 4.9-5 4.9h-19.1c-4.5 0-4.9-.3-4.9-4.9V241.6c0-6.6.1-13.1 0-19.7-.1-3 1.2-4 4.1-4 6.9.1 13.7 0 20.6 0 3.6 0 4.2.7 4.2 4.4v73.5zm-87.2 1.8c1.3-4.5 2.5-8.4 3.5-12.4.6-2.6 2-3.7 4.8-3.6 4.8.2 9.6 0 14.5 0 5.5 0 5.6 0 5.6 5.4v110.5c.1 2.5-1.1 3.5-3.6 3.5-5.7 0-11.5-.1-17.2 0-2.4 0-3.6-1-4.1-3.2-1-4-2.1-7.9-3.3-12.4-.9 1-1.6 1.7-2.2 2.4-8.3 9.9-19 15-31.8 15.8-15.9.9-30.6-2.6-43-13.1-12.7-10.5-18.8-24.5-20.5-40.5-1.8-17.1 1-33.2 11.2-47.4 9.2-12.9 22.1-19.8 37.6-22.1 8.3-1.2 16.5-1.2 24.7 1 8.7 2.3 15.9 7 21.7 13.8.5.6 1.1 1.2 2.1 2.3zm-2.4 43.9c-.1-19.7-14.3-33.4-34.2-33.2-19.4.2-32.6 13.7-32.5 33.3.1 19.9 13.7 33.6 33.1 33.4 19.9-.1 33.7-13.9 33.6-33.5zM758 353.1c3.4 10.9 9.9 18.1 20.1 21.3 14.3 4.4 28 2.8 40.2-6.6 2.2-1.7 4-2 6.1.3 4.2 4.6 8.7 9 13 13.5 2.3 2.4 2.3 3.6-.1 5.9-8.2 8-18.1 12.5-29.3 14.4-15.6 2.7-31.1 2.5-45.9-3.9-18.8-8.2-29.7-22.8-33.4-42.7-3.1-16.7-1.3-33 7.5-47.9 9.4-16 23.9-24.3 41.9-27 10.8-1.6 21.5-1.1 32 2 19 5.6 30.6 18.7 36.3 37.3 2.9 9.4 3.9 19.1 4.1 28.8.1 3.9-.5 4.4-4.4 4.4h-83.7c-1.4.2-2.6.2-4.4.2zm61.6-21.8c-.2-13.3-14.4-24.3-30.9-24.4-17.9-.1-29.4 11.9-30.7 24.4h61.6zm-162.2 35.1c5.4-14.5 10.5-28.5 15.6-42.4 4.7-12.8 9.4-25.6 14-38.4.9-2.6 2.3-3.8 5.1-3.8 7.6.1 15.2 0 22.8.1 4 0 4.6 1 3.2 4.7-14.5 37-29.1 74-43.5 111-1 2.4-2.4 3.5-5.1 3.5-8.1-.1-16.2-.1-24.3 0-2.7 0-4.2-1.1-5.1-3.5-14.5-37.1-29.1-74.2-43.7-111.3-1.3-3.3-.6-4.3 3-4.4 7.8-.1 15.6 0 23.4-.1 2.8 0 3.9 1.5 4.8 3.8 9.4 25.8 19 51.5 28.5 77.3.2 1 .7 2 1.3 3.5zm-77.1-25v54.8c0 4.6-.4 4.9-4.9 4.9-6.7 0-13.3-.1-20 0-2.9 0-4.1-1-4.1-4V285.7c0-2.8 1.2-3.9 3.9-3.9 7.1.1 14.2.1 21.2 0 2.9 0 3.9 1.2 3.9 4.1v55.5zm-14.4-90.5c-10 0-16.8-6.8-16.7-16.8.1-9.6 6.9-16.3 16.7-16.3 9.8 0 16.4 6.6 16.4 16.4 0 10.1-6.5 16.7-16.4 16.7z"/><linearGradient id="SVGID_1_" gradientUnits="userSpaceOnUse" x1="411.615" y1="147.037" x2="580.396" y2="147.037"><stop offset=".237" stop-color="#ec6a45"/><stop offset="1" stop-color="#e7376b"/></linearGradient><path d="M578.9 148.3l-106.6-38.6c-.6-.2-1.3-.2-1.8.1L412.7 142c-.7.4-1.1 1.1-1.1 1.9v32c0 .8.4 1.5 1.1 1.9.7.4 1.5.4 2.2 0l56.6-31.8 105.9 38.3c.2.1.5.1.8.1.4 0 .9-.1 1.3-.4.6-.4.9-1.1.9-1.8v-32c0-.8-.6-1.6-1.5-1.9z" fill="url(#SVGID_1_)"/><linearGradient id="SVGID_2_" gradientUnits="userSpaceOnUse" x1="411.615" y1="471.924" x2="580.396" y2="471.924"><stop offset=".237" stop-color="#ec6a45"/><stop offset="1" stop-color="#e7376b"/></linearGradient><path d="M579.3 441c-.7-.4-1.5-.4-2.2 0l-56.6 31.8-105.9-38.3c-.7-.2-1.4-.1-2 .3-.6.4-.9 1.1-.9 1.8v32c0 .9.6 1.8 1.5 2.1l106.6 38.6c.2.1.5.1.8.1.4 0 .7-.1 1.1-.3l57.7-32.3c.7-.4 1.1-1.1 1.1-1.9v-32c-.1-.7-.5-1.5-1.2-1.9z" fill="url(#SVGID_2_)"/></svg>