<svg viewBox="0 0 564 466" xmlns="http://www.w3.org/2000/svg" fill-rule="evenodd" clip-rule="evenodd" stroke-linejoin="round" stroke-miterlimit="2"><g fill-rule="nonzero"><path d="M282.083 2.531C290 4.614 295 15.031 291.25 21.281c-1.667 2.083-7.083 3.333-12.5 2.083-5.833-.833-10.417.417-11.667 4.167-4.166 10.416-2.916 12.916 9.584 14.583 10 1.25 13.333 0 16.666-7.917 8.75-18.75 2.917-35-11.666-34.166-5.417.416-5.417.833.416 2.5zm52.5 9.166c-10.833 3.75-20.416 7.917-22.083 9.167-1.25 1.25.417 19.167 4.167 39.167 3.333 20 5 37.916 3.75 40-1.25 2.083 3.333 10.416 10 17.916l12.5 14.167 18.75-27.5c10.416-15.417 20.416-31.25 22.5-35.417 6.666-12.916.833-30.833-15-47.916l-15-16.667-19.584 7.083zm15 21.25c12.917 14.167 15 19.584 15 36.667-.416 10.833-2.916 24.167-5.833 29.583l-5.417 9.584L345 98.364c-5-6.667-9.167-20.417-10.833-36.25-1.667-13.75-4.167-30-5.417-35.417-3.75-15 3.333-12.916 20.833 6.25zm58.334-12.083c-7.917 8.75-7.917 8.75.416 7.5 13.334-2.5 10.834 30.833-4.583 61.667-7.5 15.833-11.667 29.583-10.833 37.916l1.25 13.75 12.5-13.333c6.666-7.083 12.083-15 12.083-17.917 0-4.166 20.417-55.833 29.167-73.333 1.666-3.333 7.083-6.667 12.083-7.5 13.75-2.083 11.25 12.917-10.833 58.333-16.25 34.167-18.334 41.667-13.75 47.084 5 5.833 6.666 5.416 17.5-5 6.666-6.25 10-12.084 7.5-13.75-2.5-1.667 2.083-16.25 12.083-37.917 22.5-48.333 22.917-50.417 10.833-59.167-9.583-7.083-10.833-7.083-21.25-.416-10 6.666-11.25 6.666-22.5.416-15.416-9.166-22.083-8.75-31.666 1.667zm-178.75 3.75c-1.667 5-.834 11.25 1.25 13.333 2.916 2.917 5 1.25 7.083-5 1.667-5 .833-11.25-1.25-13.333-2.917-2.917-5-1.25-7.083 5zm31.666 33.333c0 9.167 3.75 20.834 10 31.25 9.584 15.417 10 15.834 10.417 5.834 0-5.834 1.25-12.084 2.917-13.334 5-5.416 17.916 10.834 17.916 22.917 0 11.667-.833 12.083-12.5 9.583-11.666-2.5-12.5-2.083-12.5 10 0 8.334 2.084 12.917 5.834 12.917 2.916 0 8.333 2.917 11.25 6.667 5 5.833 6.25 2.5 10.833-25.834 5.833-37.5 4.167-47.5-9.167-60l-9.166-8.75-2.917 13.334c-2.5 12.916-2.917 12.916-10.417 5.833-4.583-3.75-9.166-11.25-10-16.25-1.25-5.417-2.083-2.917-2.5 5.833zM232.5 65.031c0 6.666.833 12.5 2.917 13.75 1.666 1.25 9.166 21.666 17.083 45.416 7.917 24.167 16.667 44.584 19.583 45.417 6.25 2.083 3.75-13.333-5.416-34.583-2.917-7.084-8.75-26.667-12.917-43.75-7.083-27.917-11.667-37.084-18.333-37.5-1.25 0-2.5 5-2.917 11.25zM126.25 80.864c-4.167 9.167-5.417 9.583-13.333 4.167-11.667-8.334-13.75-7.917-25.834 5-7.916 8.75-13.75 11.25-24.166 10.416-11.25-1.25-15.834 1.25-24.584 11.667-14.166 16.667-18.75 39.583-10.833 53.75 4.583 8.333 10.417 11.25 23.75 13.333 9.583 1.25 17.5 1.25 17.5 0-.417-8.75-10-15-23.75-15-14.583 0-15.833-.833-17.083-13.333-1.25-14.167 10.416-30.417 22.083-30.417 10.417 0 26.667 21.667 37.917 50.834 12.5 31.25 11.25 43.333-3.75 38.75-21.25-6.667-28.334-7.084-34.167-2.084-8.75 7.084-7.917 10.417 3.333 11.25 5 .417 15.834 2.084 24.167 3.334 10 2.083 16.25.833 19.167-2.917 11.666-14.583 7.916-65.833-7.5-96.25-12.5-23.75-1.667-32.917 16.25-14.167 10.416 10.834 42.916 82.084 40 86.667-.834 1.667-7.5 1.667-14.167-.417-9.167-2.5-14.167-2.083-18.75 2.5-11.25 11.25-7.083 16.25 14.583 17.084 18.75.416 21.25-.417 23.334-9.584 3.75-14.166-1.25-42.5-13.334-80-5.833-17.083-9.583-33.75-8.333-37.083 4.167-10.417 12.917-5 23.333 14.583 7.917 15 10 23.334 7.917 35-3.75 22.917 4.167 40.834 24.167 55 10 6.667 18.75 11.667 19.583 10.417.833-.833 2.917-6.667 4.583-13.333 2.5-9.584 1.667-10.834-3.75-8.75-7.916 2.916-21.666-7.917-30-24.167-7.083-13.333-7.5-34.167-1.666-45.417 3.333-5.416 3.333-9.583 0-13.333-2.5-2.5-7.917-10-12.917-16.667-10.833-14.583-27.083-15-33.75-.833zm75.833 12.083c0 6.667 2.917 11.25 7.917 12.917 5.417 1.667 11.25 11.667 17.5 30.417 10.833 32.916 19.167 50.833 24.167 50.833 3.75 0 .833-21.667-3.75-25-3.334-2.5-20.834-55.417-20.834-63.75 0-3.333-4.583-7.917-10.416-10.417-14.167-6.666-14.584-6.666-14.584 5zm-.833 17.5c-5.833 5.834-3.333 28.334 5.417 47.5 9.583 21.25 24.166 38.334 29.166 35 6.667-3.75 3.75-16.25-4.583-21.25-10.417-6.666-20.417-26.666-24.167-47.916-1.666-9.167-4.166-15-5.833-13.334zm325.833 121.25c-14.166 9.584-16.666 13.75-16.666 28.334 0 15.416 12.5 36.666 27.5 46.25 10.416 7.083 11.25 7.083 18.75-2.917 10.416-13.333 10-15-4.167-12.917-8.75 1.25-13.75-.833-18.75-8.333-6.667-9.167-6.667-10 8.75-22.917l15.833-13.333-10.416-10.833c-10.417-10-10.834-10-20.834-3.334zm7.5 14.167c4.167 6.667 4.167 10 .417 14.583-7.083 8.334-10.833 7.084-13.75-4.583-4.583-18.333 4.167-25 13.333-10zm-67.916 8.333c-1.667 5-.417 11.25 3.333 15.417 9.583 11.25 23.75 41.25 23.75 50.833 0 15.417-10 7.084-25-21.666-15.833-30.834-33.333-44.167-33.333-26.25 0 5.833 2.5 10.416 5.833 10.416 5.417 0 27.5 43.75 27.5 54.584 0 3.333 5 6.25 12.083 6.666 10 .834 12.5-.833 13.75-8.333 1.667-9.167 3.75-10 17.084-5 5.833 2.5 7.083.833 7.083-10.417 0-7.083-1.667-12.083-3.75-10.416-5.417 2.916-15.417-11.667-24.167-36.25-8.333-24.167-20-33.334-24.166-19.584zm-70.417 57.5c-9.583 30.417-7.083 51.667 8.333 67.5l11.25 12.084 7.917-12.5c9.583-15.834 9.167-16.667-.833-16.667-4.584 0-10.834-5-14.584-12.5-6.666-12.5-8.75-45.833-2.916-45.833 11.666 0 25.833 26.666 25.833 48.333 0 5.417 1.25 10 3.333 10 1.667 0 7.5 11.25 12.917 25s11.25 24.167 12.5 22.917c5.417-5.417-1.25-37.917-14.583-70.834-7.917-19.166-14.167-38.333-14.167-41.666 0-3.334-2.5-6.25-5-6.25-2.917 0-9.167-1.25-13.75-2.5-7.083-1.667-9.583 1.666-16.25 22.916zm-377.5-6.666C2.917 312.947 0 315.864 0 326.697c0 10 2.917 13.334 17.917 20.417 9.583 5 17.5 11.25 17.5 14.583 0 4.584 1.25 4.584 6.25.417 11.666-9.583 7.083-19.583-12.917-28.75-33.75-16.25-17.083-32.083 22.5-20.833 34.167 9.583 49.583 30.833 40 55.416-2.083 5-3.75 5.417-10.417 1.25-6.25-3.75-9.166-3.333-15 2.5-6.666 6.667-6.666 7.084 0 7.084 3.75 0 7.084 1.666 7.084 4.166 0 7.917-12.084 4.167-30.834-9.166-18.333-12.5-19.166-12.917-27.083-5.834-7.917 7.5-7.917 7.917 15.417 20 20.416 11.25 25 12.084 35.833 8.334 10-3.75 12.917-3.75 16.667 1.666 4.166 5.417 5.416 5.417 12.916-.416 7.917-5.834 7.917-6.667 1.25-10.417-7.083-4.167-7.083-5.417.834-20.833 17.083-33.75 8.75-51.25-30.417-63.75-27.5-8.75-25.833-8.75-48.75 2.5zm329.167 24.583c-2.917 7.5-5.834 11.25-7.084 8.333-2.916-7.083-12.5-6.25-15.416 1.25-1.25 3.334-1.25 11.667 0 17.917 1.25 6.25.416 22.5-1.667 36.25-5 29.167 0 39.583 10.833 23.333 5-7.5 6.667-17.5 5.417-38.75-1.25-27.083 2.917-40.833 12.5-40.833 2.083 0 3.75 12.5 3.75 27.5 0 40 12.917 57.5 24.167 32.917 5.833-12.917 6.25-15.834 1.25-12.5-6.25 3.75-7.917-2.5-9.584-34.584-.833-16.25-2.5-30-4.166-30-1.25 0-5.417-1.25-8.75-2.5-4.167-1.25-7.917 2.084-11.25 11.667zm-216.667 1.25c-2.5 3.333-3.75 7.917-2.083 10 1.25 2.5-1.25 16.25-5.834 31.25-9.583 30.417-7.916 45.833 4.167 42.083 6.25-2.083 7.917-.416 7.917 6.25 0 14.167 10 7.084 11.25-7.916.833-7.5 5.833-25 11.666-39.584 5.834-14.166 10.417-29.583 10.417-33.75 0-14.583-13.75 3.75-19.167 25.834-8.75 34.166-13.75 45-19.166 39.583-3.334-3.333-2.084-11.667 4.166-32.083 10-29.167 11.25-42.084 5.417-45.417-2.083-1.25-5.833.417-8.75 3.75zm97.083 3.75c-12.916 15-43.333 110.417-38.333 120 5.417 10 13.333 5 10.417-6.25-3.334-13.75 29.583-110 40.416-117.5 6.25-4.583 7.084-6.25 2.5-6.25-3.333 0-10.416 4.583-15 10zm62.5 21.25c-2.916 2.917-9.166 8.333-13.75 11.667-5.833 4.166-11.25 16.666-16.666 38.75-7.5 30.416-7.5 33.333-1.25 37.916 3.75 2.917 8.333 5.417 10 5.417 3.75 0 25.416-27.5 32.5-40.417 5-9.583 5.833-35 2.083-50.416-2.917-10.417-5.833-11.25-12.917-2.917zm1.25 51.667c-2.5 17.083-10.833 26.666-18.333 21.666-5.417-3.333-4.167-14.166 5.833-54.583 2.5-10.417 2.917-10 8.75 4.167 3.75 8.333 5.417 20.416 3.75 28.75zm-112.916-43.75c-20 20.416-30.417 91.25-12.084 84.166 3.75-1.25 7.084-2.5 7.917-2.5.833 0-1.25-5-4.167-11.666-7.083-14.167-3.75-34.167 5.834-34.167 12.083 0 16.25-5.833 19.166-26.25 3.334-22.5-.833-25.417-16.666-9.583zm6.666 14.583c-2.5 13.333-12.916 23.75-12.916 12.917 0-5.834 12.5-30.417 14.583-28.334.833.834 0 7.917-1.667 15.417z"/><path d="M242.917 373.364c-22.5 23.75-35.417 70.833-24.167 88.75 2.917 5 5 4.583 12.5-2.083 7.5-6.667 7.917-8.334 2.083-11.25-11.25-6.25-5.833-50 8.334-67.917 6.25-7.917 6.25-7.917 3.75 2.917-1.667 7.5-.834 11.666 2.083 11.666 6.25 0 9.583-9.166 7.917-22.916l-1.25-11.25-11.25 12.083z"/></g></svg>